<svg width="14" height="13" viewBox="0 0 14 13" fill="none" xmlns="http://www.w3.org/2000/svg">
<path fill-rule="evenodd" clip-rule="evenodd" d="M14 6.095C14 9.461 10.866 12.189 7 12.189C6.307 12.19 5.61601 12.101 4.94601 11.923C4.43501 12.18 3.26199 12.675 1.28799 12.997C1.11299 13.025 0.980011 12.844 1.04901 12.682C1.35901 11.954 1.63899 10.984 1.72299 10.1C0.650992 9.02901 0 7.627 0 6.095C0 2.729 3.134 0 7 0C10.866 0 14 2.729 14 6.095ZM4.375 6.095C4.375 6.325 4.28299 6.54701 4.11899 6.71001C3.95499 6.87401 3.732 6.965 3.5 6.965C3.268 6.965 3.04501 6.87401 2.88101 6.71001C2.71701 6.54701 2.625 6.325 2.625 6.095C2.625 5.864 2.71701 5.642 2.88101 5.479C3.04501 5.316 3.268 5.224 3.5 5.224C3.732 5.224 3.95499 5.316 4.11899 5.479C4.28299 5.642 4.375 5.864 4.375 6.095ZM7.875 6.095C7.875 6.325 7.78299 6.54701 7.61899 6.71001C7.45499 6.87401 7.232 6.965 7 6.965C6.768 6.965 6.54501 6.87401 6.38101 6.71001C6.21701 6.54701 6.125 6.325 6.125 6.095C6.125 5.864 6.21701 5.642 6.38101 5.479C6.54501 5.316 6.768 5.224 7 5.224C7.232 5.224 7.45499 5.316 7.61899 5.479C7.78299 5.642 7.875 5.864 7.875 6.095ZM10.5 6.965C10.732 6.965 10.955 6.87401 11.119 6.71001C11.283 6.54701 11.375 6.325 11.375 6.095C11.375 5.864 11.283 5.642 11.119 5.479C10.955 5.316 10.732 5.224 10.5 5.224C10.268 5.224 10.045 5.316 9.88101 5.479C9.71701 5.642 9.625 5.864 9.625 6.095C9.625 6.325 9.71701 6.54701 9.88101 6.71001C10.045 6.87401 10.268 6.965 10.5 6.965Z" fill="#1A1A1A"/>
</svg>
