<svg width="14" height="11" viewBox="0 0 14 11" fill="none" xmlns="http://www.w3.org/2000/svg">
<path d="M14 2.854V8.88499C14 9.44599 13.77 9.984 13.359 10.38C12.949 10.777 12.393 11 11.812 11H2.18799C1.60699 11 1.05099 10.777 0.640991 10.38C0.229991 9.984 0 9.44599 0 8.88499V2.854L6.77802 6.711C6.84502 6.749 6.922 6.77 7 6.77C7.078 6.77 7.15498 6.749 7.22198 6.711L14 2.854ZM11.812 0C12.351 0 12.87 0.192001 13.271 0.539001C13.672 0.886001 13.927 1.364 13.987 1.881L7 5.855L0.0130005 1.881C0.0730005 1.364 0.328004 0.886001 0.729004 0.539001C1.13 0.192001 1.64899 0 2.18799 0H11.812Z" fill="#1A1A1A"/>
</svg>
