<svg width="16" height="15" viewBox="0 0 16 15" fill="none" xmlns="http://www.w3.org/2000/svg">
<path fill-rule="evenodd" clip-rule="evenodd" d="M10.81 3.83072C10.488 3.84072 10.18 3.69373 9.98501 3.43773L7.936 0.747725C7.406 0.0517251 6.31301 0.233719 6.03701 1.06372L4.97201 4.27173C4.87001 4.57773 4.62602 4.81673 4.31802 4.91173L1.03903 5.92572C0.156026 6.19772 -0.00595641 7.37772 0.770044 7.87872L3.45803 9.61673C3.74803 9.80373 3.92 10.1277 3.915 10.4727L3.863 13.6427C3.848 14.5367 4.85801 15.0657 5.58401 14.5457L8.46603 12.4807C8.71803 12.3007 9.03902 12.2467 9.33602 12.3357L12.73 13.3557C13.587 13.6127 14.371 12.7847 14.067 11.9437L12.99 8.96173C12.873 8.63673 12.932 8.27472 13.145 8.00372L15.126 5.48872C15.697 4.76272 15.161 3.69972 14.238 3.72772L10.81 3.83072Z" fill="#1A1A1A"/>
</svg>
