<svg width="14" height="14" viewBox="0 0 14 14" fill="none" xmlns="http://www.w3.org/2000/svg">
<path d="M12.894 2.554L11.214 0.875C11.095 0.756 10.954 0.662007 10.799 0.598007C10.644 0.533007 10.478 0.5 10.31 0.5C9.967 0.5 9.64599 0.634 9.40399 0.875L7.59601 2.683C7.47701 2.802 7.38299 2.94301 7.31799 3.09801C7.25399 3.25301 7.22101 3.42 7.22101 3.588C7.22101 3.93 7.35501 4.252 7.59601 4.493L8.918 5.815C8.609 6.497 8.17901 7.118 7.64801 7.647C7.11901 8.178 6.49899 8.61 5.81699 8.922L4.495 7.60001C4.376 7.48001 4.23499 7.38601 4.07999 7.32201C3.92499 7.25701 3.759 7.224 3.591 7.224C3.248 7.224 2.926 7.35801 2.685 7.60001L0.875 9.40601C0.756 9.52501 0.661985 9.666 0.596985 9.821C0.532985 9.977 0.5 10.143 0.5 10.312C0.5 10.654 0.634 10.976 0.875 11.217L2.55301 12.894C2.93701 13.281 3.46901 13.5 4.01501 13.5C4.13001 13.5 4.241 13.491 4.349 13.472C6.476 13.121 8.58499 11.99 10.288 10.289C11.988 8.59 13.118 6.48301 13.473 4.35001C13.58 3.69801 13.364 3.027 12.894 2.554Z" fill="#1A1A1A"/>
</svg>
